<svg width="96" height="96" viewBox="0 0 480 480" fill="none" xmlns="http://www.w3.org/2000/svg">
<path d="M253 154C258.59 154.292 265.909 154.584 274.959 154.876C284.009 155.168 292.925 155.314 301.709 155.314C314.219 155.314 326.197 155.168 337.642 154.876C349.087 154.584 357.205 154.438 361.996 154.438C389.944 154.438 410.971 160.86 425.078 173.703C439.185 186.547 446.239 203.04 446.239 223.181C446.239 233.397 444.243 243.468 440.25 253.393C436.524 263.025 430.136 271.928 421.086 280.102C412.302 287.983 400.458 294.405 385.552 299.367V300.243C406.58 303.162 422.949 308.708 434.66 316.881C446.638 324.763 455.022 334.104 459.813 344.904C464.604 355.704 467 367.089 467 379.056C467 395.695 463.141 410.436 455.422 423.28C447.969 435.831 437.056 445.756 422.683 453.054C408.31 460.351 391.142 464 371.179 464C365.323 464 356.54 463.854 344.828 463.562C333.117 462.978 319.01 462.686 302.507 462.686C293.192 462.686 284.009 462.832 274.959 463.124C265.909 463.124 258.59 463.416 253 464V455.243C262.05 454.659 268.837 453.492 273.362 451.74C278.153 449.989 281.347 446.486 282.944 441.232C284.541 435.977 285.34 428.096 285.34 417.588V200.412C285.34 189.612 284.541 181.731 282.944 176.768C281.347 171.514 278.153 168.011 273.362 166.26C268.837 164.217 262.05 163.049 253 162.757V154ZM352.015 162.757C339.771 162.757 331.786 165.238 328.06 170.201C324.333 175.163 322.47 185.234 322.47 200.412V417.588C322.47 427.804 323.269 435.54 324.866 440.794C326.463 446.048 329.391 449.551 333.649 451.302C337.908 453.054 344.163 453.929 352.414 453.929C378.499 453.929 397.397 447.362 409.108 434.226C421.086 420.798 427.075 401.825 427.075 377.305C427.075 354.829 421.485 337.46 410.306 325.201C399.393 312.941 381.294 306.811 356.007 306.811H314.884C314.884 306.811 314.884 305.643 314.884 303.308C314.884 300.681 314.884 299.367 314.884 299.367H349.22C364.924 299.367 377.035 296.156 385.552 289.734C394.07 283.021 399.925 274.264 403.119 263.463C406.313 252.371 407.91 240.549 407.91 227.997C407.91 206.396 403.519 190.196 394.735 179.395C386.218 168.303 371.978 162.757 352.015 162.757Z" fill="#FDE74C"/>
<path d="M253.078 152.502L251.5 152.42V154V162.757V164.209L252.952 164.256C261.94 164.546 268.491 165.706 272.745 167.627L272.795 167.65L272.847 167.669C277.158 169.245 280.037 172.361 281.509 177.205L281.512 177.216L281.516 177.228C283.037 181.955 283.84 189.638 283.84 200.412V417.588C283.84 428.057 283.04 435.759 281.509 440.795C280.037 445.639 277.158 448.755 272.847 450.331L272.834 450.336L272.82 450.341C268.512 452.009 261.909 453.165 252.903 453.746L251.5 453.837V455.243V464V465.665L253.156 465.492C258.672 464.916 265.934 464.624 274.959 464.624H274.983L275.007 464.624C284.041 464.332 293.207 464.186 302.507 464.186C318.994 464.186 333.075 464.478 344.754 465.06L344.772 465.061L344.791 465.062C356.505 465.354 365.304 465.5 371.179 465.5C391.323 465.5 408.734 461.818 423.362 454.391C437.96 446.979 449.097 436.869 456.71 424.049C464.582 410.947 468.5 395.935 468.5 379.056C468.5 366.882 466.062 355.29 461.185 344.296C456.256 333.186 447.659 323.643 435.502 315.639C424.344 307.858 409.155 302.47 390.03 299.396C403.217 294.594 413.921 288.546 422.088 281.218L422.091 281.215C431.281 272.915 437.82 263.827 441.645 253.943C445.704 243.852 447.739 233.595 447.739 223.181C447.739 202.644 440.527 185.74 426.088 172.594C411.6 159.404 390.147 152.938 361.996 152.938C357.184 152.938 349.049 153.084 337.604 153.376C326.172 153.668 314.207 153.814 301.709 153.814C292.942 153.814 284.041 153.668 275.007 153.376C265.962 153.085 258.654 152.793 253.078 152.502ZM407.989 433.227L407.989 433.228C396.676 445.916 378.28 452.429 352.414 452.429C344.228 452.429 338.207 451.555 334.22 449.915C330.459 448.368 327.795 445.273 326.301 440.358C324.769 435.318 323.97 427.76 323.97 417.588V308.311H356.007C381.096 308.311 398.681 314.397 409.186 326.198L409.192 326.205L409.198 326.211C420.047 338.109 425.575 355.068 425.575 377.305C425.575 401.591 419.644 420.161 407.989 433.227ZM349.22 297.867H323.97V200.412C323.97 192.875 324.433 186.662 325.343 181.748C326.256 176.81 327.597 173.314 329.259 171.101C332.521 166.758 339.824 164.257 352.015 164.257C371.721 164.257 385.419 169.726 393.545 180.309L393.558 180.326L393.571 180.342C402.046 190.762 406.41 206.561 406.41 227.997C406.41 240.419 404.83 252.099 401.679 263.044C398.571 273.551 392.892 282.035 384.636 288.546C376.477 294.692 364.738 297.867 349.22 297.867Z" stroke="#E5E9EC" stroke-opacity="0.5" stroke-width="3"/>
<path d="M253.078 152.502L251.5 152.42V154V162.757V164.209L252.952 164.256C261.94 164.546 268.491 165.706 272.745 167.627L272.795 167.65L272.847 167.669C277.158 169.245 280.037 172.361 281.509 177.205L281.512 177.216L281.516 177.228C283.037 181.955 283.84 189.638 283.84 200.412V417.588C283.84 428.057 283.04 435.759 281.509 440.795C280.037 445.639 277.158 448.755 272.847 450.331L272.834 450.336L272.82 450.341C268.512 452.009 261.909 453.165 252.903 453.746L251.5 453.837V455.243V464V465.665L253.156 465.492C258.672 464.916 265.934 464.624 274.959 464.624H274.983L275.007 464.624C284.041 464.332 293.207 464.186 302.507 464.186C318.994 464.186 333.075 464.478 344.754 465.06L344.772 465.061L344.791 465.062C356.505 465.354 365.304 465.5 371.179 465.5C391.323 465.5 408.734 461.818 423.362 454.391C437.96 446.979 449.097 436.869 456.71 424.049C464.582 410.947 468.5 395.935 468.5 379.056C468.5 366.882 466.062 355.29 461.185 344.296C456.256 333.186 447.659 323.643 435.502 315.639C424.344 307.858 409.155 302.47 390.03 299.396C403.217 294.594 413.921 288.546 422.088 281.218L422.091 281.215C431.281 272.915 437.82 263.827 441.645 253.943C445.704 243.852 447.739 233.595 447.739 223.181C447.739 202.644 440.527 185.74 426.088 172.594C411.6 159.404 390.147 152.938 361.996 152.938C357.184 152.938 349.049 153.084 337.604 153.376C326.172 153.668 314.207 153.814 301.709 153.814C292.942 153.814 284.041 153.668 275.007 153.376C265.962 153.085 258.654 152.793 253.078 152.502ZM407.989 433.227L407.989 433.228C396.676 445.916 378.28 452.429 352.414 452.429C344.228 452.429 338.207 451.555 334.22 449.915C330.459 448.368 327.795 445.273 326.301 440.358C324.769 435.318 323.97 427.76 323.97 417.588V308.311H356.007C381.096 308.311 398.681 314.397 409.186 326.198L409.192 326.205L409.198 326.211C420.047 338.109 425.575 355.068 425.575 377.305C425.575 401.591 419.644 420.161 407.989 433.227ZM349.22 297.867H323.97V200.412C323.97 192.875 324.433 186.662 325.343 181.748C326.256 176.81 327.597 173.314 329.259 171.101C332.521 166.758 339.824 164.257 352.015 164.257C371.721 164.257 385.419 169.726 393.545 180.309L393.558 180.326L393.571 180.342C402.046 190.762 406.41 206.561 406.41 227.997C406.41 240.419 404.83 252.099 401.679 263.044C398.571 273.551 392.892 282.035 384.636 288.546C376.477 294.692 364.738 297.867 349.22 297.867Z" stroke="#5B7C99" stroke-opacity="0.5" stroke-width="3"/>
<g filter="url(#filter0_d_3_3)">
<path d="M143.897 16L241.421 299.182C245.418 310.588 249.948 318.241 255.011 322.143C260.074 325.745 264.737 327.696 269 327.996V337C263.671 336.4 257.143 336.1 249.415 336.1C241.688 335.799 233.961 335.649 226.233 335.649C215.841 335.649 206.116 335.799 197.056 336.1C187.996 336.1 180.669 336.4 175.073 337V327.996C188.663 327.396 197.322 324.844 201.053 320.342C204.783 315.54 203.984 305.485 198.655 290.178L124.313 66.4236L130.708 60.5709L61.1617 264.066C56.8984 276.072 54.367 286.276 53.5676 294.68C52.7683 302.784 53.4344 309.237 55.5661 314.039C57.9642 318.842 61.8279 322.293 67.1571 324.394C72.7527 326.495 79.6807 327.696 87.9409 327.996V337C80.48 336.4 72.6195 336.1 64.3593 336.1C56.3655 335.799 48.9046 335.649 41.9767 335.649C35.3152 335.649 29.5863 335.799 24.79 336.1C20.2602 336.1 15.9969 336.4 12 337V327.996C17.3292 326.495 22.7916 323.043 28.3872 317.641C33.9829 311.938 39.0456 302.334 43.5754 288.828L137.502 16C138.568 16 139.634 16 140.7 16C141.766 16 142.832 16 143.897 16ZM192.659 207.339V216.344H73.5521L77.549 207.339H192.659Z" fill="#FDE74C" shape-rendering="crispEdges"/>
<path d="M145.316 15.5116L144.967 14.5H143.897H143.891H143.885H143.879H143.872H143.866H143.86H143.854H143.847H143.841H143.835H143.829H143.822H143.816H143.81H143.804H143.797H143.791H143.785H143.779H143.772H143.766H143.76H143.754H143.747H143.741H143.735H143.729H143.723H143.716H143.71H143.704H143.698H143.691H143.685H143.679H143.673H143.666H143.66H143.654H143.648H143.641H143.635H143.629H143.623H143.616H143.61H143.604H143.598H143.591H143.585H143.579H143.573H143.566H143.56H143.554H143.548H143.541H143.535H143.529H143.523H143.516H143.51H143.504H143.498H143.491H143.485H143.479H143.473H143.466H143.46H143.454H143.448H143.441H143.435H143.429H143.423H143.416H143.41H143.404H143.398H143.392H143.385H143.379H143.373H143.367H143.36H143.354H143.348H143.342H143.335H143.329H143.323H143.317H143.31H143.304H143.298H143.292H143.285H143.279H143.273H143.267H143.26H143.254H143.248H143.242H143.235H143.229H143.223H143.217H143.21H143.204H143.198H143.192H143.185H143.179H143.173H143.167H143.16H143.154H143.148H143.142H143.135H143.129H143.123H143.117H143.11H143.104H143.098H143.092H143.085H143.079H143.073H143.067H143.061H143.054H143.048H143.042H143.036H143.029H143.023H143.017H143.011H143.004H142.998H142.992H142.986H142.979H142.973H142.967H142.961H142.954H142.948H142.942H142.936H142.929H142.923H142.917H142.911H142.904H142.898H142.892H142.886H142.879H142.873H142.867H142.861H142.854H142.848H142.842H142.836H142.829H142.823H142.817H142.811H142.804H142.798H142.792H142.786H142.779H142.773H142.767H142.761H142.755H142.748H142.742H142.736H142.73H142.723H142.717H142.711H142.705H142.698H142.692H142.686H142.68H142.673H142.667H142.661H142.655H142.648H142.642H142.636H142.63H142.623H142.617H142.611H142.605H142.598H142.592H142.586H142.58H142.573H142.567H142.561H142.555H142.548H142.542H142.536H142.53H142.523H142.517H142.511H142.505H142.498H142.492H142.486H142.48H142.473H142.467H142.461H142.455H142.448H142.442H142.436H142.43H142.424H142.417H142.411H142.405H142.399H142.392H142.386H142.38H142.374H142.367H142.361H142.355H142.349H142.342H142.336H142.33H142.324H142.317H142.311H142.305H142.299H142.292H142.286H142.28H142.274H142.267H142.261H142.255H142.249H142.242H142.236H142.23H142.224H142.217H142.211H142.205H142.199H142.192H142.186H142.18H142.174H142.167H142.161H142.155H142.149H142.142H142.136H142.13H142.124H142.117H142.111H142.105H142.099H142.093H142.086H142.08H142.074H142.068H142.061H142.055H142.049H142.043H142.036H142.03H142.024H142.018H142.011H142.005H141.999H141.993H141.986H141.98H141.974H141.968H141.961H141.955H141.949H141.943H141.936H141.93H141.924H141.918H141.911H141.905H141.899H141.893H141.886H141.88H141.874H141.868H141.861H141.855H141.849H141.843H141.836H141.83H141.824H141.818H141.811H141.805H141.799H141.793H141.786H141.78H141.774H141.768H141.762H141.755H141.749H141.743H141.737H141.73H141.724H141.718H141.712H141.705H141.699H141.693H141.687H141.68H141.674H141.668H141.662H141.655H141.649H141.643H141.637H141.63H141.624H141.618H141.612H141.605H141.599H141.593H141.587H141.58H141.574H141.568H141.562H141.555H141.549H141.543H141.537H141.53H141.524H141.518H141.512H141.505H141.499H141.493H141.487H141.48H141.474H141.468H141.462H141.456H141.449H141.443H141.437H141.431H141.424H141.418H141.412H141.406H141.399H141.393H141.387H141.381H141.374H141.368H141.362H141.356H141.349H141.343H141.337H141.331H141.324H141.318H141.312H141.306H141.299H141.293H141.287H141.281H141.274H141.268H141.262H141.256H141.249H141.243H141.237H141.231H141.224H141.218H141.212H141.206H141.199H141.193H141.187H141.181H141.174H141.168H141.162H141.156H141.149H141.143H141.137H141.131H141.125H141.118H141.112H141.106H141.1H141.093H141.087H141.081H141.075H141.068H141.062H141.056H141.05H141.043H141.037H141.031H141.025H141.018H141.012H141.006H141H140.993H140.987H140.981H140.975H140.968H140.962H140.956H140.95H140.943H140.937H140.931H140.925H140.918H140.912H140.906H140.9H140.893H140.887H140.881H140.875H140.868H140.862H140.856H140.85H140.843H140.837H140.831H140.825H140.818H140.812H140.806H140.8H140.794H140.787H140.781H140.775H140.769H140.762H140.756H140.75H140.744H140.737H140.731H140.725H140.719H140.712H140.706H140.7H140.694H140.687H140.681H140.675H140.669H140.662H140.656H140.65H140.644H140.637H140.631H140.625H140.619H140.612H140.606H140.6H140.594H140.587H140.581H140.575H140.569H140.562H140.556H140.55H140.544H140.537H140.531H140.525H140.519H140.512H140.506H140.5H140.494H140.488H140.481H140.475H140.469H140.463H140.456H140.45H140.444H140.438H140.431H140.425H140.419H140.413H140.406H140.4H140.394H140.388H140.381H140.375H140.369H140.363H140.356H140.35H140.344H140.338H140.331H140.325H140.319H140.313H140.306H140.3H140.294H140.288H140.281H140.275H140.269H140.263H140.256H140.25H140.244H140.238H140.231H140.225H140.219H140.213H140.206H140.2H140.194H140.188H140.182H140.175H140.169H140.163H140.157H140.15H140.144H140.138H140.132H140.125H140.119H140.113H140.107H140.1H140.094H140.088H140.082H140.075H140.069H140.063H140.057H140.05H140.044H140.038H140.032H140.025H140.019H140.013H140.007H140H139.994H139.988H139.982H139.975H139.969H139.963H139.957H139.95H139.944H139.938H139.932H139.925H139.919H139.913H139.907H139.9H139.894H139.888H139.882H139.875H139.869H139.863H139.857H139.851H139.844H139.838H139.832H139.826H139.819H139.813H139.807H139.801H139.794H139.788H139.782H139.776H139.769H139.763H139.757H139.751H139.744H139.738H139.732H139.726H139.719H139.713H139.707H139.701H139.694H139.688H139.682H139.676H139.669H139.663H139.657H139.651H139.644H139.638H139.632H139.626H139.619H139.613H139.607H139.601H139.594H139.588H139.582H139.576H139.569H139.563H139.557H139.551H139.544H139.538H139.532H139.526H139.52H139.513H139.507H139.501H139.495H139.488H139.482H139.476H139.47H139.463H139.457H139.451H139.445H139.438H139.432H139.426H139.42H139.413H139.407H139.401H139.395H139.388H139.382H139.376H139.37H139.363H139.357H139.351H139.345H139.338H139.332H139.326H139.32H139.313H139.307H139.301H139.295H139.288H139.282H139.276H139.27H139.263H139.257H139.251H139.245H139.238H139.232H139.226H139.22H139.214H139.207H139.201H139.195H139.189H139.182H139.176H139.17H139.164H139.157H139.151H139.145H139.139H139.132H139.126H139.12H139.114H139.107H139.101H139.095H139.089H139.082H139.076H139.07H139.064H139.057H139.051H139.045H139.039H139.032H139.026H139.02H139.014H139.007H139.001H138.995H138.989H138.982H138.976H138.97H138.964H138.957H138.951H138.945H138.939H138.932H138.926H138.92H138.914H138.907H138.901H138.895H138.889H138.883H138.876H138.87H138.864H138.858H138.851H138.845H138.839H138.833H138.826H138.82H138.814H138.808H138.801H138.795H138.789H138.783H138.776H138.77H138.764H138.758H138.751H138.745H138.739H138.733H138.726H138.72H138.714H138.708H138.701H138.695H138.689H138.683H138.676H138.67H138.664H138.658H138.651H138.645H138.639H138.633H138.626H138.62H138.614H138.608H138.601H138.595H138.589H138.583H138.576H138.57H138.564H138.558H138.552H138.545H138.539H138.533H138.527H138.52H138.514H138.508H138.502H138.495H138.489H138.483H138.477H138.47H138.464H138.458H138.452H138.445H138.439H138.433H138.427H138.42H138.414H138.408H138.402H138.395H138.389H138.383H138.377H138.37H138.364H138.358H138.352H138.345H138.339H138.333H138.327H138.32H138.314H138.308H138.302H138.295H138.289H138.283H138.277H138.27H138.264H138.258H138.252H138.246H138.239H138.233H138.227H138.221H138.214H138.208H138.202H138.196H138.189H138.183H138.177H138.171H138.164H138.158H138.152H138.146H138.139H138.133H138.127H138.121H138.114H138.108H138.102H138.096H138.089H138.083H138.077H138.071H138.064H138.058H138.052H138.046H138.039H138.033H138.027H138.021H138.014H138.008H138.002H137.996H137.989H137.983H137.977H137.971H137.964H137.958H137.952H137.946H137.939H137.933H137.927H137.921H137.915H137.908H137.902H137.896H137.89H137.883H137.877H137.871H137.865H137.858H137.852H137.846H137.84H137.833H137.827H137.821H137.815H137.808H137.802H137.796H137.79H137.783H137.777H137.771H137.765H137.758H137.752H137.746H137.74H137.733H137.727H137.721H137.715H137.708H137.702H137.696H137.69H137.683H137.677H137.671H137.665H137.658H137.652H137.646H137.64H137.633H137.627H137.621H137.615H137.609H137.602H137.596H137.59H137.584H137.577H137.571H137.565H137.559H137.552H137.546H137.54H137.534H137.527H137.521H137.515H137.509H137.502H136.432L136.084 15.5117L42.1571 288.339L42.1533 288.351C37.6516 301.773 32.6822 311.115 27.3309 316.576C21.8507 321.864 16.6025 325.141 11.5934 326.552L10.5 326.86V327.996V337V338.742L12.2228 338.483C16.1377 337.895 20.326 337.6 24.79 337.6H24.8369L24.8837 337.597C29.6395 337.299 35.3355 337.149 41.9767 337.149C48.8832 337.149 56.3252 337.299 64.303 337.599L64.3311 337.6H64.3593C72.5834 337.6 80.4036 337.898 87.8206 338.495L89.4409 338.626V337V327.996V326.549L87.9954 326.497C79.8459 326.201 73.0933 325.019 67.6969 322.995C62.7037 321.024 59.1438 317.828 56.9233 313.4C54.9501 308.933 54.2755 302.784 55.0604 294.827L55.0609 294.822C55.8443 286.586 58.3345 276.51 62.5753 264.568L62.5782 264.56L62.5811 264.551L78.5437 217.844H173.041L197.231 290.651L197.235 290.661L197.238 290.671C199.883 298.268 201.371 304.472 201.756 309.318C202.143 314.187 201.398 317.438 199.882 319.404C198.283 321.324 195.511 322.964 191.336 324.193C187.165 325.422 181.735 326.2 175.007 326.497L173.573 326.561V327.996V337V338.67L175.233 338.491C180.754 337.899 188.022 337.6 197.056 337.6H197.081L197.106 337.599C206.147 337.299 215.856 337.149 226.233 337.149C233.941 337.149 241.649 337.299 249.357 337.598L249.386 337.6H249.415C257.109 337.6 263.577 337.899 268.832 338.491L270.5 338.678V337V327.996V326.598L269.105 326.5C265.221 326.226 260.828 324.437 255.904 320.938C251.208 317.306 246.805 310.008 242.839 298.692C242.838 298.69 242.838 298.688 242.837 298.686L145.316 15.5116ZM126.459 77.641L169.053 205.839H82.6462L126.459 77.641Z" stroke="#E5E9EC" stroke-opacity="0.5" stroke-width="3" shape-rendering="crispEdges"/>
<path d="M145.316 15.5116L144.967 14.5H143.897H143.891H143.885H143.879H143.872H143.866H143.86H143.854H143.847H143.841H143.835H143.829H143.822H143.816H143.81H143.804H143.797H143.791H143.785H143.779H143.772H143.766H143.76H143.754H143.747H143.741H143.735H143.729H143.723H143.716H143.71H143.704H143.698H143.691H143.685H143.679H143.673H143.666H143.66H143.654H143.648H143.641H143.635H143.629H143.623H143.616H143.61H143.604H143.598H143.591H143.585H143.579H143.573H143.566H143.56H143.554H143.548H143.541H143.535H143.529H143.523H143.516H143.51H143.504H143.498H143.491H143.485H143.479H143.473H143.466H143.46H143.454H143.448H143.441H143.435H143.429H143.423H143.416H143.41H143.404H143.398H143.392H143.385H143.379H143.373H143.367H143.36H143.354H143.348H143.342H143.335H143.329H143.323H143.317H143.31H143.304H143.298H143.292H143.285H143.279H143.273H143.267H143.26H143.254H143.248H143.242H143.235H143.229H143.223H143.217H143.21H143.204H143.198H143.192H143.185H143.179H143.173H143.167H143.16H143.154H143.148H143.142H143.135H143.129H143.123H143.117H143.11H143.104H143.098H143.092H143.085H143.079H143.073H143.067H143.061H143.054H143.048H143.042H143.036H143.029H143.023H143.017H143.011H143.004H142.998H142.992H142.986H142.979H142.973H142.967H142.961H142.954H142.948H142.942H142.936H142.929H142.923H142.917H142.911H142.904H142.898H142.892H142.886H142.879H142.873H142.867H142.861H142.854H142.848H142.842H142.836H142.829H142.823H142.817H142.811H142.804H142.798H142.792H142.786H142.779H142.773H142.767H142.761H142.755H142.748H142.742H142.736H142.73H142.723H142.717H142.711H142.705H142.698H142.692H142.686H142.68H142.673H142.667H142.661H142.655H142.648H142.642H142.636H142.63H142.623H142.617H142.611H142.605H142.598H142.592H142.586H142.58H142.573H142.567H142.561H142.555H142.548H142.542H142.536H142.53H142.523H142.517H142.511H142.505H142.498H142.492H142.486H142.48H142.473H142.467H142.461H142.455H142.448H142.442H142.436H142.43H142.424H142.417H142.411H142.405H142.399H142.392H142.386H142.38H142.374H142.367H142.361H142.355H142.349H142.342H142.336H142.33H142.324H142.317H142.311H142.305H142.299H142.292H142.286H142.28H142.274H142.267H142.261H142.255H142.249H142.242H142.236H142.23H142.224H142.217H142.211H142.205H142.199H142.192H142.186H142.18H142.174H142.167H142.161H142.155H142.149H142.142H142.136H142.13H142.124H142.117H142.111H142.105H142.099H142.093H142.086H142.08H142.074H142.068H142.061H142.055H142.049H142.043H142.036H142.03H142.024H142.018H142.011H142.005H141.999H141.993H141.986H141.98H141.974H141.968H141.961H141.955H141.949H141.943H141.936H141.93H141.924H141.918H141.911H141.905H141.899H141.893H141.886H141.88H141.874H141.868H141.861H141.855H141.849H141.843H141.836H141.83H141.824H141.818H141.811H141.805H141.799H141.793H141.786H141.78H141.774H141.768H141.762H141.755H141.749H141.743H141.737H141.73H141.724H141.718H141.712H141.705H141.699H141.693H141.687H141.68H141.674H141.668H141.662H141.655H141.649H141.643H141.637H141.63H141.624H141.618H141.612H141.605H141.599H141.593H141.587H141.58H141.574H141.568H141.562H141.555H141.549H141.543H141.537H141.53H141.524H141.518H141.512H141.505H141.499H141.493H141.487H141.48H141.474H141.468H141.462H141.456H141.449H141.443H141.437H141.431H141.424H141.418H141.412H141.406H141.399H141.393H141.387H141.381H141.374H141.368H141.362H141.356H141.349H141.343H141.337H141.331H141.324H141.318H141.312H141.306H141.299H141.293H141.287H141.281H141.274H141.268H141.262H141.256H141.249H141.243H141.237H141.231H141.224H141.218H141.212H141.206H141.199H141.193H141.187H141.181H141.174H141.168H141.162H141.156H141.149H141.143H141.137H141.131H141.125H141.118H141.112H141.106H141.1H141.093H141.087H141.081H141.075H141.068H141.062H141.056H141.05H141.043H141.037H141.031H141.025H141.018H141.012H141.006H141H140.993H140.987H140.981H140.975H140.968H140.962H140.956H140.95H140.943H140.937H140.931H140.925H140.918H140.912H140.906H140.9H140.893H140.887H140.881H140.875H140.868H140.862H140.856H140.85H140.843H140.837H140.831H140.825H140.818H140.812H140.806H140.8H140.794H140.787H140.781H140.775H140.769H140.762H140.756H140.75H140.744H140.737H140.731H140.725H140.719H140.712H140.706H140.7H140.694H140.687H140.681H140.675H140.669H140.662H140.656H140.65H140.644H140.637H140.631H140.625H140.619H140.612H140.606H140.6H140.594H140.587H140.581H140.575H140.569H140.562H140.556H140.55H140.544H140.537H140.531H140.525H140.519H140.512H140.506H140.5H140.494H140.488H140.481H140.475H140.469H140.463H140.456H140.45H140.444H140.438H140.431H140.425H140.419H140.413H140.406H140.4H140.394H140.388H140.381H140.375H140.369H140.363H140.356H140.35H140.344H140.338H140.331H140.325H140.319H140.313H140.306H140.3H140.294H140.288H140.281H140.275H140.269H140.263H140.256H140.25H140.244H140.238H140.231H140.225H140.219H140.213H140.206H140.2H140.194H140.188H140.182H140.175H140.169H140.163H140.157H140.15H140.144H140.138H140.132H140.125H140.119H140.113H140.107H140.1H140.094H140.088H140.082H140.075H140.069H140.063H140.057H140.05H140.044H140.038H140.032H140.025H140.019H140.013H140.007H140H139.994H139.988H139.982H139.975H139.969H139.963H139.957H139.95H139.944H139.938H139.932H139.925H139.919H139.913H139.907H139.9H139.894H139.888H139.882H139.875H139.869H139.863H139.857H139.851H139.844H139.838H139.832H139.826H139.819H139.813H139.807H139.801H139.794H139.788H139.782H139.776H139.769H139.763H139.757H139.751H139.744H139.738H139.732H139.726H139.719H139.713H139.707H139.701H139.694H139.688H139.682H139.676H139.669H139.663H139.657H139.651H139.644H139.638H139.632H139.626H139.619H139.613H139.607H139.601H139.594H139.588H139.582H139.576H139.569H139.563H139.557H139.551H139.544H139.538H139.532H139.526H139.52H139.513H139.507H139.501H139.495H139.488H139.482H139.476H139.47H139.463H139.457H139.451H139.445H139.438H139.432H139.426H139.42H139.413H139.407H139.401H139.395H139.388H139.382H139.376H139.37H139.363H139.357H139.351H139.345H139.338H139.332H139.326H139.32H139.313H139.307H139.301H139.295H139.288H139.282H139.276H139.27H139.263H139.257H139.251H139.245H139.238H139.232H139.226H139.22H139.214H139.207H139.201H139.195H139.189H139.182H139.176H139.17H139.164H139.157H139.151H139.145H139.139H139.132H139.126H139.12H139.114H139.107H139.101H139.095H139.089H139.082H139.076H139.07H139.064H139.057H139.051H139.045H139.039H139.032H139.026H139.02H139.014H139.007H139.001H138.995H138.989H138.982H138.976H138.97H138.964H138.957H138.951H138.945H138.939H138.932H138.926H138.92H138.914H138.907H138.901H138.895H138.889H138.883H138.876H138.87H138.864H138.858H138.851H138.845H138.839H138.833H138.826H138.82H138.814H138.808H138.801H138.795H138.789H138.783H138.776H138.77H138.764H138.758H138.751H138.745H138.739H138.733H138.726H138.72H138.714H138.708H138.701H138.695H138.689H138.683H138.676H138.67H138.664H138.658H138.651H138.645H138.639H138.633H138.626H138.62H138.614H138.608H138.601H138.595H138.589H138.583H138.576H138.57H138.564H138.558H138.552H138.545H138.539H138.533H138.527H138.52H138.514H138.508H138.502H138.495H138.489H138.483H138.477H138.47H138.464H138.458H138.452H138.445H138.439H138.433H138.427H138.42H138.414H138.408H138.402H138.395H138.389H138.383H138.377H138.37H138.364H138.358H138.352H138.345H138.339H138.333H138.327H138.32H138.314H138.308H138.302H138.295H138.289H138.283H138.277H138.27H138.264H138.258H138.252H138.246H138.239H138.233H138.227H138.221H138.214H138.208H138.202H138.196H138.189H138.183H138.177H138.171H138.164H138.158H138.152H138.146H138.139H138.133H138.127H138.121H138.114H138.108H138.102H138.096H138.089H138.083H138.077H138.071H138.064H138.058H138.052H138.046H138.039H138.033H138.027H138.021H138.014H138.008H138.002H137.996H137.989H137.983H137.977H137.971H137.964H137.958H137.952H137.946H137.939H137.933H137.927H137.921H137.915H137.908H137.902H137.896H137.89H137.883H137.877H137.871H137.865H137.858H137.852H137.846H137.84H137.833H137.827H137.821H137.815H137.808H137.802H137.796H137.79H137.783H137.777H137.771H137.765H137.758H137.752H137.746H137.74H137.733H137.727H137.721H137.715H137.708H137.702H137.696H137.69H137.683H137.677H137.671H137.665H137.658H137.652H137.646H137.64H137.633H137.627H137.621H137.615H137.609H137.602H137.596H137.59H137.584H137.577H137.571H137.565H137.559H137.552H137.546H137.54H137.534H137.527H137.521H137.515H137.509H137.502H136.432L136.084 15.5117L42.1571 288.339L42.1533 288.351C37.6516 301.773 32.6822 311.115 27.3309 316.576C21.8507 321.864 16.6025 325.141 11.5934 326.552L10.5 326.86V327.996V337V338.742L12.2228 338.483C16.1377 337.895 20.326 337.6 24.79 337.6H24.8369L24.8837 337.597C29.6395 337.299 35.3355 337.149 41.9767 337.149C48.8832 337.149 56.3252 337.299 64.303 337.599L64.3311 337.6H64.3593C72.5834 337.6 80.4036 337.898 87.8206 338.495L89.4409 338.626V337V327.996V326.549L87.9954 326.497C79.8459 326.201 73.0933 325.019 67.6969 322.995C62.7037 321.024 59.1438 317.828 56.9233 313.4C54.9501 308.933 54.2755 302.784 55.0604 294.827L55.0609 294.822C55.8443 286.586 58.3345 276.51 62.5753 264.568L62.5782 264.56L62.5811 264.551L78.5437 217.844H173.041L197.231 290.651L197.235 290.661L197.238 290.671C199.883 298.268 201.371 304.472 201.756 309.318C202.143 314.187 201.398 317.438 199.882 319.404C198.283 321.324 195.511 322.964 191.336 324.193C187.165 325.422 181.735 326.2 175.007 326.497L173.573 326.561V327.996V337V338.67L175.233 338.491C180.754 337.899 188.022 337.6 197.056 337.6H197.081L197.106 337.599C206.147 337.299 215.856 337.149 226.233 337.149C233.941 337.149 241.649 337.299 249.357 337.598L249.386 337.6H249.415C257.109 337.6 263.577 337.899 268.832 338.491L270.5 338.678V337V327.996V326.598L269.105 326.5C265.221 326.226 260.828 324.437 255.904 320.938C251.208 317.306 246.805 310.008 242.839 298.692C242.838 298.69 242.838 298.688 242.837 298.686L145.316 15.5116ZM126.459 77.641L169.053 205.839H82.6462L126.459 77.641Z" stroke="#5B7C99" stroke-opacity="0.5" stroke-width="3" shape-rendering="crispEdges"/>
</g>
<defs>
<filter id="filter0_d_3_3" x="5" y="13" width="271" height="335.484" filterUnits="userSpaceOnUse" color-interpolation-filters="sRGB">
<feFlood flood-opacity="0" result="BackgroundImageFix"/>
<feColorMatrix in="SourceAlpha" type="matrix" values="0 0 0 0 0 0 0 0 0 0 0 0 0 0 0 0 0 0 127 0" result="hardAlpha"/>
<feOffset dy="4"/>
<feGaussianBlur stdDeviation="2"/>
<feComposite in2="hardAlpha" operator="out"/>
<feColorMatrix type="matrix" values="0 0 0 0 0 0 0 0 0 0 0 0 0 0 0 0 0 0 0.25 0"/>
<feBlend mode="normal" in2="BackgroundImageFix" result="effect1_dropShadow_3_3"/>
<feBlend mode="normal" in="SourceGraphic" in2="effect1_dropShadow_3_3" result="shape"/>
</filter>
</defs>
</svg>
